/vscmnt/brussel_pixiu_data/_data_brussel/112/vsc11236/PredSimResults/SUBJ07opt3D/weighted-LRposFixed/expIG/worker_04.mot
version=1
nRows=11
nColumns=50
inDegrees=yes
endheader
                time	         pelvis_tilt	         pelvis_list	     pelvis_rotation	           pelvis_tx	           pelvis_ty	           pelvis_tz	       hip_flexion_r	     hip_adduction_r	      hip_rotation_r	        knee_angle_r	       ankle_angle_r	         mtp_angle_r	       hip_flexion_l	     hip_adduction_l	      hip_rotation_l	        knee_angle_l	       ankle_angle_l	         mtp_angle_l	    lumbar_extension	      lumbar_bending	     lumbar_rotation	 ercspn_r/activation	 intobl_r/activation	 extobl_r/activation	    abd_r/activation	    add_r/activation	hamstrings_r/activation	bifemsh_r/activation	glut_max_r/activation	iliopsoas_r/activation	rect_fem_r/activation	  vasti_r/activation	gastroc_r/activation	 soleus_r/activation	tib_ant_r/activation	 ercspn_l/activation	 intobl_l/activation	 extobl_l/activation	    abd_l/activation	    add_l/activation	hamstrings_l/activation	bifemsh_l/activation	glut_max_l/activation	iliopsoas_l/activation	rect_fem_l/activation	  vasti_l/activation	gastroc_l/activation	 soleus_l/activation	tib_ant_l/activation	
          0.55584039	         -4.26130520	          0.17721941	         -9.67360292	          0.67812527	          0.84739677	          0.01512269	        -14.11956579	         -0.00483326	          5.67540684	         -8.42101947	          9.01772833	         28.16074063	         31.09140719	         -3.06867001	         -6.25031790	         -7.51297675	          2.96443293	          0.26924857	        -12.34216011	          1.53766749	          1.50261155	          0.09493658	          0.00999999	          0.01000000	          0.03656677	          0.03540900	          0.01448357	          0.18374313	          0.02339400	          0.33387284	          0.01000002	          0.01000000	          0.20118534	          0.33998800	          0.01935566	          0.13217575	          0.14465118	          0.01000000	          0.01796424	          0.14797766	          0.09508465	          0.12849502	          0.06085078	          0.05472812	          0.01000000	          0.00999999	          0.01000000	          0.00999999	          0.43488340	
          0.56695719	         -4.25104169	          0.12231994	         -9.73776840	          0.69448199	          0.84552138	          0.01459685	        -14.78226609	         -0.12370239	          5.38829205	         -9.21563415	          8.10996063	         29.78740101	         31.20734503	         -2.86472328	         -6.07549999	         -9.48481308	          2.55011943	          0.26568033	        -12.17541238	          1.19710895	          1.70235889	          0.11944346	          0.00999999	          0.01000000	          0.03085074	          0.08277810	          0.01508046	          0.15502091	          0.01973711	          0.50031007	          0.01185273	          0.01000003	          0.16973654	          0.32154558	          0.01633003	          0.11847821	          0.12203966	          0.01000000	          0.01515611	          0.19733092	          0.08022125	          0.10840901	          0.14273423	          0.04617315	          0.01000004	          0.01000000	          0.01404888	          0.01404887	          0.43959542	
          0.57807400	         -4.23301503	          0.06060870	         -9.75419529	          0.71109138	          0.84380631	          0.01405282	        -15.27620075	         -0.20918420	          5.06201139	        -10.36481923	          7.12139122	         31.39290935	         31.16516751	         -2.71319916	         -5.71826090	        -11.44205510	          2.18567389	          0.24694881	        -11.99701087	          0.85079258	          1.89482390	          0.14612351	          0.00999999	          0.01000000	          0.02602823	          0.09616681	          0.01272336	          0.14205023	          0.01665185	          0.45965656	          0.01000002	          0.00999999	          0.14320373	          0.29875757	          0.01377736	          0.11729282	          0.11532868	          0.00999999	          0.05214983	          0.19342017	          0.07054465	          0.10224509	          0.18480923	          0.03895548	          0.01000000	          0.00999999	          0.01185279	          0.01185279	          0.51801721	
          0.58919081	         -4.21092764	         -0.01849376	         -9.71464907	          0.72776711	          0.84239089	          0.01341587	        -15.52945538	         -0.24825108	          4.69227455	        -11.95784667	          6.00517184	         32.95998142	         30.98419231	         -2.57332634	         -5.39655272	        -13.15615646	          1.77803766	          0.23037965	        -11.82786556	          0.52223367	          2.07416876	          0.17377029	          0.00999999	          0.01000000	          0.02195956	          0.09139428	          0.01298491	          0.11984635	          0.01404888	          0.38780501	          0.01000005	          0.00999999	          0.12081847	          0.27450973	          0.01162372	          0.14524316	          0.09730078	          0.00999999	          0.10946918	          0.19825645	          0.06036582	          0.08626240	          0.21127999	          0.03286605	          0.01000000	          0.00999999	          0.01000000	          0.00999999	          0.56467425	
          0.60030762	         -4.18545785	         -0.11282740	         -9.62293694	          0.74431874	          0.84141234	          0.01269355	        -15.49834683	         -0.24352023	          4.28054300	        -14.03026552	          4.72526929	         34.40586987	         30.76557540	         -2.44209796	         -5.13790963	        -14.82271855	          1.53367216	          0.20755067	        -11.68328745	          0.20721051	          2.23694665	          0.21573343	          0.00999999	          0.01000000	          0.01852690	          0.08829954	          0.01437628	          0.10749728	          0.01185279	          0.32718427	          0.01000001	          0.00999999	          0.10193242	          0.23427799	          0.00999999	          0.15428761	          0.08209096	          0.00999999	          0.16258346	          0.20362601	          0.05092959	          0.07277808	          0.23916255	          0.02772851	          0.01000000	          0.01000002	          0.01000000	          0.01000000	          0.56100945	
          0.61142443	         -4.15759286	         -0.21078593	         -9.48298635	          0.76054473	          0.84102326	          0.01189744	        -15.13203961	         -0.20744898	          3.83380016	        -16.63214347	          3.30083171	         35.51696906	         30.60007017	         -2.31621753	         -4.93261990	        -16.60243118	          1.63563235	          0.18535764	        -11.57712900	         -0.10678930	          2.37958877	          0.25072967	          0.00999999	          0.01000000	          0.01563082	          0.11895234	          0.01531394	          0.09737178	          0.01000000	          0.27603962	          0.01000000	          0.00999999	          0.08599859	          0.19765622	          0.00999999	          0.16531451	          0.06925870	          0.00999999	          0.19193883	          0.22307194	          0.04553558	          0.06140159	          0.25465280	          0.02339406	          0.01000000	          0.04073682	          0.01000000	          0.00999999	          0.54002706	
          0.62254123	         -4.12887781	         -0.31044579	         -9.29720809	          0.77636474	          0.84130978	          0.01104640	        -14.39920905	         -0.14375251	          3.35916591	        -19.79439594	          1.76712656	         36.01191223	         30.46378427	         -2.19046861	         -4.76908428	        -18.42446930	          2.06577865	          0.17497242	        -11.50803772	         -0.41978724	          2.50016382	          0.27351998	          0.00999999	          0.01000000	          0.01318744	          0.15167562	          0.01623383	          0.08215096	          0.00999999	          0.23288977	          0.01000000	          0.00999999	          0.07255550	          0.16675908	          0.00999999	          0.16992763	          0.05843234	          0.00999999	          0.20682237	          0.23647405	          0.04238538	          0.05180345	          0.25489449	          0.01973716	          0.01000000	          0.08378989	          0.01000000	          0.00999999	          0.45737370	
          0.63365804	         -4.10157191	         -0.41174828	         -9.06766145	          0.79179603	          0.84227892	          0.01015994	        -13.30006035	         -0.05852267	          2.87566002	        -23.47811725	          0.04853557	         35.78201502	         30.26146020	         -2.05430521	         -4.61849971	        -20.10773980	          2.80924739	          0.21982750	        -11.46380332	         -0.72840673	          2.59793386	          0.28601581	          0.00999999	          0.01000000	          0.01112602	          0.17408657	          0.01560217	          0.06931017	          0.00999999	          0.19648501	          0.01000000	          0.00999999	          0.06121380	          0.14069170	          0.00999999	          0.14504895	          0.04929834	          0.00999999	          0.20832342	          0.23708711	          0.04382373	          0.04370567	          0.23096220	          0.01665189	          0.01000001	          0.14001934	          0.01000000	          0.00999999	          0.38587815	
          0.64477485	         -4.07942441	         -0.51469102	         -8.79554147	          0.80685129	          0.84389215	          0.00923503	        -11.85842277	          0.04255708	          2.41968172	        -27.56336685	         -2.01335831	         34.86077300	         29.89550433	         -1.89368427	         -4.44127031	        -21.44699967	          3.70705376	          0.35012256	        -11.43820435	         -1.02530796	          2.67504655	          0.27410697	          0.00999999	          0.01000000	          0.00999999	          0.18128210	          0.01316393	          0.06645554	          0.00999999	          0.16577095	          0.01000000	          0.00999999	          0.05164500	          0.11869912	          0.00999999	          0.12237525	          0.04159214	          0.00999999	          0.20642401	          0.22227922	          0.05265660	          0.03687372	          0.19485876	          0.01404891	          0.01000000	          0.17551895	          0.01000000	          0.00999999	          0.32555862	
          0.65589166	         -4.06578638	         -0.61917763	         -8.48131711	          0.82152143	          0.84605015	          0.00827907	        -10.11792438	          0.16086498	          2.02577107	        -31.89507741	         -4.48344837	         33.21196978	         29.32540875	         -1.70459176	         -4.21336562	        -22.33664688	          4.57113774	          0.56241207	        -11.43177779	         -1.30761973	          2.73114316	          0.26949674	          0.00999999	          0.01000000	          0.01000000	          0.18121766	          0.03092998	          0.05778958	          0.01769580	          0.13985803	          0.01000000	          0.00999999	          0.04357198	          0.10014436	          0.02430988	          0.10324585	          0.03509056	          0.00999999	          0.20127760	          0.19510060	          0.06701685	          0.03110972	          0.16439891	          0.01185282	          0.01000000	          0.21348865	          0.01000000	          0.00999999	          0.27466811	
          0.66700846	         -4.06218610	         -0.72718726	         -8.12635979	          0.83579612	          0.84861573	          0.00731643	         -8.14360031	          0.30871858	          1.70564075	        -36.34051105	         -7.00038256	         30.40533065	         28.54905841	         -1.49608042	         -3.93628035	        -22.75923006	          5.32247864	          0.84138007	        -11.44616043	         -1.57181404	          2.76506187	          0.27486266	          0.03707677	          0.01000022	          0.01404888	          0.16440107	          0.02667567	          0.04875609	          0.01810191	          0.11799576	          0.01000000	          0.00999999	          0.03676092	          0.08449003	          0.18323354	          0.08710671	          0.02960529	          0.00999999	          0.21116164	          0.16460295	          0.07511268	          0.02624673	          0.13870047	          0.01000002	          0.01000000	          0.22934358	          0.01000000	          0.00999999	          0.24192767	
